<svg version="1.1"
     xmlns="http://www.w3.org/2000/svg" x="0px" y="0px"
     width="836.2px"
     height="836.4px"
     viewBox="0 0 836.2 836.4"
     xml:space="preserve">
<style type="text/css">
	.blue{fill:#2DA2DC;}
	.red{fill:#E4511F;}
</style>
	<path class="red" d="M486.8,271.8c79.3,38.2,112.6,133.4,74.4,212.6S427.8,597,348.6,558.8S236,425.5,274.2,346.2
		c15.7-32.5,41.9-58.8,74.4-74.4V132.1C192,170.3,96,328.2,134.1,484.8s196.1,252.6,352.7,214.5c156.6-38.2,252.6-196.1,214.5-352.7
		c-25.8-105.9-108.5-188.6-214.5-214.5V271.8z"/>
	<path class="red"
	      d="M167.9,657.1c22.7,0,41,18.4,41,41s-18.4,41-41,41s-41-18.4-41-41l0,0C126.9,675.5,145.3,657.1,167.9,657.1z"/>
	<path class="blue" d="M699.4,107.8c171,155.8,183.4,420.7,27.7,591.7c-143,157-380.8,182.2-553.5,58.6c31-2.9,54.7-28.8,54.8-59.9
		v-3.9c153,104.8,362,65.7,466.7-87.3s65.7-362-87.3-466.7s-362-65.7-466.7,87.3c-86.5,126.3-76.6,295.2,24.1,410.5
		c-31.8,1.8-56.8,28-57,59.9v1.7C-47,528.1-33.6,263.2,138,108.1C297.4-35.9,539.9-36,699.4,107.8z"/>
	<path class="blue" d="M375.1,127.7h81.5v311.8h-81.5V127.7z"/>
</svg>
