<svg xmlns="http://www.w3.org/2000/svg" viewBox="0 0 800 170.87"><defs><style>.cls-1{fill:#de5510;}.cls-2{fill:#d71618;}.cls-3{fill:#efb817;}.cls-4{fill:#48408f;}.cls-5{fill:#1496ca;}.cls-6{fill:#323333;}</style></defs><g id="图层_2" data-name="图层 2"><g id="图层_1-2" data-name="图层 1"><path class="cls-1" d="M89.76,52.75c-6.45,0-12.92-.13-19.38,0-4.44.12-6.5-1.57-6.44-6.19.13-11.45.09-22.91,0-34.36,0-4.16,2-6.06,6.11-6.06q20,.12,40,0c3.88,0,5.71,1.65,5.68,5.63q-.14,17.82,0,35.63c0,3.69-1.74,5.31-5.31,5.31H89.8Z"/><path class="cls-2" d="M26,6.14c6.47,0,13,.1,19.42,0,4.41-.1,6.5,1.58,6.42,6.24q-.24,17.27,0,34.45c0,4.3-1.81,6-6,6q-19.74-.15-39.48,0C1.81,52.79,0,50.68,0,46.26q.14-16.9,0-33.83C0,7.85,2.18,6.14,6.55,6.14,13,6.26,19.5,6.14,26,6.14Z"/><path class="cls-3" d="M25.24,109H5.85C2,109,0,107.23,0,103.33v-35c0-4,2-5.62,5.81-5.62H46.47c3.59,0,5.31,1.58,5.31,5.32q-.14,17.86,0,35.66c0,4.14-2.15,5.44-5.9,5.4H25.27Z"/><path class="cls-4" d="M89.92,62.62c6.26,0,12.52.16,18.77,0,4.89-.16,7.26,1.4,7.11,6.78-.31,11-.19,22.1,0,33.21,0,4.37-1.41,6.64-6.1,6.56-13.14-.12-26.27-.09-39.41,0-4.55,0-6.34-2.09-6.3-6.5.11-11,.19-22.1,0-33.21-.11-5.31,2.35-7,7.23-6.81C77.41,62.77,83.69,62.62,89.92,62.62Z"/><path class="cls-5" d="M25.93,164.61c-6.48,0-12.95-.14-19.42,0-4.45.13-6.56-1.55-6.51-6.17.12-11.06.09-22.13,0-33.21,0-4.44,1.82-6.48,6.36-6.44q19.74.15,39.47,0c4.28,0,6,1.78,6,6-.12,11.26-.19,22.58,0,33.82.09,4.81-2.21,6.18-6.49,6.11-6.47-.12-12.94,0-19.4,0Z"/><path class="cls-6" d="M235.36,46.11H177.13V74.36H226v35.7H177.13v57H137.6V10.82h39.53V28.48q1.26-9.15,5.74-13.59t12.95-4.48h39.54ZM296.54,0V114.32q0,13.81,2.36,19.44t8.28,5.66h0a14.77,14.77,0,0,0,4.06-.45h0l2.55,28.9a74.51,74.51,0,0,1-18.31,2.54h0q-18.69,0-27.61-13.14t-8.93-40.18h0V0ZM397.49,48.65h37.64v119H397.49v-13.6q-14.43,16.56-34.64,16.56h0q-18,0-26.66-9.34T327.57,133h0V48.65h37.64v74.82q0,12.12,3.72,17t11.13,4.86h0a18.14,18.14,0,0,0,8.39-2.13,39.08,39.08,0,0,0,9-6.8h0Zm121.76,99.24q13.83,0,30.2-15.91h0l15.91,21.65q-10.17,9.57-21.46,13.1t-26.77,3.49h0q-18.27,0-31.87-7.44a51.73,51.73,0,0,1-21-21.23q-7.44-13.83-7.44-32.74h0q0-19.56,7.33-34A51.15,51.15,0,0,1,485,52.72Q498.67,45,517.13,45h0q18.72,0,29.66,8.09a44.13,44.13,0,0,1,15.5,20.28A72.3,72.3,0,0,1,566.88,99h0a64.27,64.27,0,0,1-2.54,19.14h-68q1.69,14.25,7.44,22a18.27,18.27,0,0,0,15.49,7.75Zm-2.73-80.51a15.54,15.54,0,0,0-13.1,6.79q-5,6.81-6.69,19.75h37.83q0-11.23-4.56-18.91a14.74,14.74,0,0,0-13.48-7.63ZM659.51,45q17.85,0,26.59,9.35t8.7,28.06h0v84.36H657.2V92q0-12.1-3.73-17t-11.16-4.86h0a17.65,17.65,0,0,0-8.39,2.2,47.94,47.94,0,0,0-9.23,6.91h0V167H587.28V48h37.41V61.41Q639.35,45,659.51,45ZM790.85,137.3l9.15,27q-14.89,6.62-28.29,6.61h0q-19.53,0-30.81-14.13t-11.24-39.65h0V78.43H712.23v-30h17.43V6.38h37.6V48.46H790v30H767.26V105.2q0,19.11,2.77,27.08t9.57,8h0c3,0,6.71-1,11.25-3Z"/></g></g></svg>