<svg xmlns="http://www.w3.org/2000/svg" viewBox="0 0 584.12 800"><defs><style>.cls-1{fill:#de5510;}.cls-2{fill:#d71618;}.cls-3{fill:#efb817;}.cls-4{fill:#48408f;}.cls-5{fill:#1496ca;}</style></defs><g id="图层_2" data-name="图层 2"><g id="图层_1-2" data-name="图层 1"><path class="cls-1" d="M452.76,235.14c-32.57,0-65.2-.67-97.76,0-22.38.6-32.77-7.91-32.5-31.23.67-57.75.47-115.58,0-173.34C322.57,9.6,332.42,0,353.32,0q100.9.6,201.75,0c19.57,0,28.81,8.31,28.68,28.41q-.71,89.85,0,179.71c0,18.62-8.78,26.8-26.8,26.8H453Z"/><path class="cls-2" d="M131,0c32.63,0,65.33.53,98,0,22.25-.47,32.77,8,32.36,31.49q-1.2,87.1,0,173.74c0,21.71-9.11,30.16-30.22,30q-99.55-.74-199.13-.06c-22.85.13-32-10.52-32-32.84Q.68,117.14,0,31.78C0,8.66,11,0,33,0,65.74.62,98.37,0,131,0Z"/><path class="cls-3" d="M127.31,518.84H29.49C9.92,519,0,509.92,0,490.23V313.47c0-20.1,10.19-28.35,29.29-28.35h205.1c18.09,0,26.8,8,26.8,26.81q-.68,90.12.13,179.9c0,20.84-10.85,27.41-29.75,27.21H127.45Z"/><path class="cls-4" d="M453.56,284.92c31.56,0,63.12.81,94.68,0,24.66-.8,36.58,7,35.85,34.18-1.55,55.74-.94,111.49,0,167.51,0,22-7.11,33.5-30.76,33.1-66.27-.61-132.54-.47-198.8,0-22.92,0-32-10.52-31.76-32.77.53-55.75.94-111.49,0-167.51-.54-26.8,11.86-35.11,36.45-34.37C390.44,285.66,422.14,284.92,453.56,284.92Z"/><path class="cls-5" d="M130.8,799.32c-32.7,0-65.33-.67-98,0C10.39,800-.26,791.55,0,768.23.61,712.41.47,656.6,0,600.72c0-22.38,9.18-32.7,32.1-32.5q99.5.81,199.07,0c21.58,0,30.29,9,30.09,30.35-.61,56.82-.94,113.91,0,170.6.47,24.25-11.13,31.15-32.7,30.82-32.63-.6-65.26,0-97.9,0Z"/></g></g></svg>