<svg xmlns="http://www.w3.org/2000/svg" viewBox="0 0 800 800">
	<defs>
		<style>.cls-1,.cls-3{fill:#2da2dc;}.cls-1{fill-rule:evenodd;}.cls-2{fill:#e4511f;}</style>
	</defs>
	<path class="cls-1"
	      d="M459.17,273.71a137.35,137.35,0,1,1-119.18,0V153.24C205,186.15,122.16,322.3,155.07,457.34s169.06,217.83,304.1,184.92S677,473.21,644.09,338.17A251.67,251.67,0,0,0,459.17,153.24Z"/>
	<path class="cls-2"
	      d="M179,613a50,50,0,1,0,50,50A50,50,0,0,0,179,613ZM400,0C179.09,0,0,179.09,0,400A398.48,398.48,0,0,0,104.27,669.34Q104,666.21,104,663a75,75,0,0,1,89.85-73.52,278.87,278.87,0,1,1,55.07,46.37,75,75,0,0,1-63.37,101.86A398.08,398.08,0,0,0,400,800c220.91,0,400-179.09,400-400S620.91,0,400,0ZM229,663a50,50,0,1,0-50,50A50,50,0,0,0,229,663Z"/>
	<circle class="cls-3" cx="179" cy="663" r="50"/>
	<rect class="cls-2" x="365" y="151" width="70" height="270"/>
</svg>